<svg id="my-svg" width="100%" xmlns="http://www.w3.org/2000/svg" xmlns:xlink="http://www.w3.org/1999/xlink" class="classDiagram" style="max-width: 642.43px; background-color: transparent;" viewBox="0 0 642.4296875 434" role="graphics-document document" aria-roledescription="class"><style>#my-svg{font-family:"trebuchet ms",verdana,arial,sans-serif;font-size:16px;fill:#333;}@keyframes edge-animation-frame{from{stroke-dashoffset:0;}}@keyframes dash{to{stroke-dashoffset:0;}}#my-svg .edge-animation-slow{stroke-dasharray:9,5!important;stroke-dashoffset:900;animation:dash 50s linear infinite;stroke-linecap:round;}#my-svg .edge-animation-fast{stroke-dasharray:9,5!important;stroke-dashoffset:900;animation:dash 20s linear infinite;stroke-linecap:round;}#my-svg .error-icon{fill:#552222;}#my-svg .error-text{fill:#552222;stroke:#552222;}#my-svg .edge-thickness-normal{stroke-width:1px;}#my-svg .edge-thickness-thick{stroke-width:3.5px;}#my-svg .edge-pattern-solid{stroke-dasharray:0;}#my-svg .edge-thickness-invisible{stroke-width:0;fill:none;}#my-svg .edge-pattern-dashed{stroke-dasharray:3;}#my-svg .edge-pattern-dotted{stroke-dasharray:2;}#my-svg .marker{fill:#333333;stroke:#333333;}#my-svg .marker.cross{stroke:#333333;}#my-svg svg{font-family:"trebuchet ms",verdana,arial,sans-serif;font-size:16px;}#my-svg p{margin:0;}#my-svg g.classGroup text{fill:#9370DB;stroke:none;font-family:"trebuchet ms",verdana,arial,sans-serif;font-size:10px;}#my-svg g.classGroup text .title{font-weight:bolder;}#my-svg .cluster-label text{fill:#333;}#my-svg .cluster-label span{color:#333;}#my-svg .cluster-label span p{background-color:transparent;}#my-svg .cluster rect{fill:#ffffde;stroke:#aaaa33;stroke-width:1px;}#my-svg .cluster text{fill:#333;}#my-svg .cluster span{color:#333;}#my-svg .nodeLabel,#my-svg .edgeLabel{color:#131300;}#my-svg .noteLabel .nodeLabel,#my-svg .noteLabel .edgeLabel{color:black;}#my-svg .edgeLabel .label rect{fill:#ECECFF;}#my-svg .label text{fill:#131300;}#my-svg .labelBkg{background:#ECECFF;}#my-svg .edgeLabel .label span{background:#ECECFF;}#my-svg .classTitle{font-weight:bolder;}#my-svg .node rect,#my-svg .node circle,#my-svg .node ellipse,#my-svg .node polygon,#my-svg .node path{fill:#ECECFF;stroke:#9370DB;stroke-width:1;}#my-svg .divider{stroke:#9370DB;stroke-width:1;}#my-svg g.clickable{cursor:pointer;}#my-svg g.classGroup rect{fill:#ECECFF;stroke:#9370DB;}#my-svg g.classGroup line{stroke:#9370DB;stroke-width:1;}#my-svg .classLabel .box{stroke:none;stroke-width:0;fill:#ECECFF;opacity:0.5;}#my-svg .classLabel .label{fill:#9370DB;font-size:10px;}#my-svg .relation{stroke:#333333;stroke-width:1;fill:none;}#my-svg .dashed-line{stroke-dasharray:3;}#my-svg .dotted-line{stroke-dasharray:1 2;}#my-svg [id$="-compositionStart"],#my-svg .composition{fill:#333333!important;stroke:#333333!important;stroke-width:1;}#my-svg [id$="-compositionEnd"],#my-svg .composition{fill:#333333!important;stroke:#333333!important;stroke-width:1;}#my-svg [id$="-dependencyStart"],#my-svg .dependency{fill:#333333!important;stroke:#333333!important;stroke-width:1;}#my-svg [id$="-dependencyEnd"],#my-svg .dependency{fill:#333333!important;stroke:#333333!important;stroke-width:1;}#my-svg [id$="-extensionStart"],#my-svg .extension{fill:transparent!important;stroke:#333333!important;stroke-width:1;}#my-svg [id$="-extensionEnd"],#my-svg .extension{fill:transparent!important;stroke:#333333!important;stroke-width:1;}#my-svg [id$="-aggregationStart"],#my-svg .aggregation{fill:transparent!important;stroke:#333333!important;stroke-width:1;}#my-svg [id$="-aggregationEnd"],#my-svg .aggregation{fill:transparent!important;stroke:#333333!important;stroke-width:1;}#my-svg [id$="-lollipopStart"],#my-svg .lollipop{fill:#ECECFF!important;stroke:#333333!important;stroke-width:1;}#my-svg [id$="-lollipopEnd"],#my-svg .lollipop{fill:#ECECFF!important;stroke:#333333!important;stroke-width:1;}#my-svg .edgeTerminals{font-size:11px;line-height:initial;}#my-svg .classTitleText{text-anchor:middle;font-size:18px;fill:#333;}#my-svg .edgeLabel[data-look="neo"]{background-color:rgba(232,232,232, 0.8);text-align:center;}#my-svg .edgeLabel[data-look="neo"] p{background-color:rgba(232,232,232, 0.8);}#my-svg .edgeLabel[data-look="neo"] rect{opacity:0.5;background-color:rgba(232,232,232, 0.8);fill:rgba(232,232,232, 0.8);}#my-svg .label-icon{display:inline-block;height:1em;overflow:visible;vertical-align:-0.125em;}#my-svg .node .label-icon path{fill:currentColor;stroke:revert;stroke-width:revert;}#my-svg .node .neo-node{stroke:#9370DB;}#my-svg [data-look="neo"].node rect,#my-svg [data-look="neo"].cluster rect,#my-svg [data-look="neo"].node polygon{stroke:#9370DB;filter:drop-shadow(1px 2px 2px rgba(185, 185, 185, 1));}#my-svg [data-look="neo"].node path{stroke:#9370DB;stroke-width:1px;}#my-svg [data-look="neo"].node .outer-path{filter:drop-shadow(1px 2px 2px rgba(185, 185, 185, 1));}#my-svg [data-look="neo"].node .neo-line path{stroke:#9370DB;filter:none;}#my-svg [data-look="neo"].node circle{stroke:#9370DB;filter:drop-shadow(1px 2px 2px rgba(185, 185, 185, 1));}#my-svg [data-look="neo"].node circle .state-start{fill:#000000;}#my-svg [data-look="neo"].icon-shape .icon{fill:#9370DB;filter:drop-shadow(1px 2px 2px rgba(185, 185, 185, 1));}#my-svg [data-look="neo"].icon-shape .icon-neo path{stroke:#9370DB;filter:drop-shadow(1px 2px 2px rgba(185, 185, 185, 1));}#my-svg :root{--mermaid-font-family:"trebuchet ms",verdana,arial,sans-serif;}</style><g><defs><marker id="my-svg_class-aggregationStart" class="marker aggregation class" refX="18" refY="7" markerWidth="190" markerHeight="240" orient="auto"><path d="M 18,7 L9,13 L1,7 L9,1 Z"/></marker></defs><defs><marker id="my-svg_class-aggregationEnd" class="marker aggregation class" refX="1" refY="7" markerWidth="20" markerHeight="28" orient="auto"><path d="M 18,7 L9,13 L1,7 L9,1 Z"/></marker></defs><defs><marker id="my-svg_class-aggregationStart-margin" class="marker aggregation class" refX="15" refY="7" markerWidth="190" markerHeight="240" orient="auto" markerUnits="userSpaceOnUse"><path d="M 18,7 L9,13 L1,7 L9,1 Z" style="stroke-width: 2;"/></marker></defs><defs><marker id="my-svg_class-aggregationEnd-margin" class="marker aggregation class" refX="1" refY="7" markerWidth="20" markerHeight="28" orient="auto" markerUnits="userSpaceOnUse"><path d="M 18,7 L9,13 L1,7 L9,1 Z" style="stroke-width: 2;"/></marker></defs><defs><marker id="my-svg_class-extensionStart" class="marker extension class" refX="18" refY="7" markerWidth="190" markerHeight="240" orient="auto" markerUnits="userSpaceOnUse"><path d="M 1,7 L18,13 V 1 Z"/></marker></defs><defs><marker id="my-svg_class-extensionEnd" class="marker extension class" refX="1" refY="7" markerWidth="20" markerHeight="28" orient="auto"><path d="M 1,1 V 13 L18,7 Z"/></marker></defs><marker id="my-svg_class-extensionStart-margin" class="marker extension class" refX="18" refY="7" markerWidth="20" markerHeight="28" orient="auto" markerUnits="userSpaceOnUse" viewBox="0 0 20 14"><polygon points="10,7 18,13 18,1" style="stroke-width: 2; stroke-dasharray: 0;"/></marker><defs><marker id="my-svg_class-extensionEnd-margin" class="marker extension class" refX="9" refY="7" markerWidth="20" markerHeight="28" orient="auto" markerUnits="userSpaceOnUse" viewBox="0 0 20 14"><polygon points="10,1 10,13 18,7" style="stroke-width: 2; stroke-dasharray: 0;"/></marker></defs><defs><marker id="my-svg_class-compositionStart" class="marker composition class" refX="18" refY="7" markerWidth="190" markerHeight="240" orient="auto"><path d="M 18,7 L9,13 L1,7 L9,1 Z"/></marker></defs><defs><marker id="my-svg_class-compositionEnd" class="marker composition class" refX="1" refY="7" markerWidth="20" markerHeight="28" orient="auto"><path d="M 18,7 L9,13 L1,7 L9,1 Z"/></marker></defs><defs><marker id="my-svg_class-compositionStart-margin" class="marker composition class" refX="15" refY="7" markerWidth="190" markerHeight="240" orient="auto" markerUnits="userSpaceOnUse"><path viewBox="0 0 15 15" d="M 18,7 L9,13 L1,7 L9,1 Z" style="stroke-width: 0;"/></marker></defs><defs><marker id="my-svg_class-compositionEnd-margin" class="marker composition class" refX="3.5" refY="7" markerWidth="20" markerHeight="28" orient="auto" markerUnits="userSpaceOnUse"><path d="M 18,7 L9,13 L1,7 L9,1 Z" style="stroke-width: 0;"/></marker></defs><defs><marker id="my-svg_class-dependencyStart" class="marker dependency class" refX="6" refY="7" markerWidth="190" markerHeight="240" orient="auto"><path d="M 5,7 L9,13 L1,7 L9,1 Z"/></marker></defs><defs><marker id="my-svg_class-dependencyEnd" class="marker dependency class" refX="13" refY="7" markerWidth="20" markerHeight="28" orient="auto"><path d="M 18,7 L9,13 L14,7 L9,1 Z"/></marker></defs><defs><marker id="my-svg_class-dependencyStart-margin" class="marker dependency class" refX="4" refY="7" markerWidth="190" markerHeight="240" orient="auto" markerUnits="userSpaceOnUse"><path d="M 5,7 L9,13 L1,7 L9,1 Z" style="stroke-width: 0;"/></marker></defs><defs><marker id="my-svg_class-dependencyEnd-margin" class="marker dependency class" refX="16" refY="7" markerWidth="20" markerHeight="28" orient="auto" markerUnits="userSpaceOnUse"><path d="M 18,7 L9,13 L14,7 L9,1 Z" style="stroke-width: 0;"/></marker></defs><defs><marker id="my-svg_class-lollipopStart" class="marker lollipop class" refX="13" refY="7" markerWidth="190" markerHeight="240" orient="auto"><circle fill="transparent" cx="7" cy="7" r="6"/></marker></defs><defs><marker id="my-svg_class-lollipopEnd" class="marker lollipop class" refX="1" refY="7" markerWidth="190" markerHeight="240" orient="auto"><circle fill="transparent" cx="7" cy="7" r="6"/></marker></defs><defs><marker id="my-svg_class-lollipopStart-margin" class="marker lollipop class" refX="13" refY="7" markerWidth="190" markerHeight="240" orient="auto" markerUnits="userSpaceOnUse"><circle fill="transparent" cx="7" cy="7" r="6" stroke-width="2"/></marker></defs><defs><marker id="my-svg_class-lollipopEnd-margin" class="marker lollipop class" refX="1" refY="7" markerWidth="190" markerHeight="240" orient="auto" markerUnits="userSpaceOnUse"><circle fill="transparent" cx="7" cy="7" r="6" stroke-width="2"/></marker></defs><g class="root"><g class="clusters"/><g class="edgePaths"><path d="M186.734,104L200.111,104C213.487,104,240.24,104,272.919,106.019C305.598,108.038,344.203,112.076,363.506,114.095L382.809,116.114" id="my-svg-id_Usuario_Drop_1" class="edge-thickness-normal edge-pattern-solid relation" style=";;;" data-edge="true" data-et="edge" data-id="id_Usuario_Drop_1" data-points="W3sieCI6MTgwLjczNDM3NSwieSI6MTA0fSx7IngiOjI2Ni45OTIxODc1LCJ5IjoxMDR9LHsieCI6MzgyLjgwODU5Mzc1LCJ5IjoxMTYuMTEzOTkzODcxMjk3MjR9XQ==" data-look="classic" marker-start="url(#my-svg_class-dependencyStart)"/><path d="M213.766,355.499L222.637,356.749C231.508,357.999,249.25,360.5,265.992,361.75C282.734,363,298.477,363,306.348,363L314.219,363" id="my-svg-id_DropDAO_JPAUtil_2" class="edge-thickness-normal edge-pattern-dashed relation" style=";;;" data-edge="true" data-et="edge" data-id="id_DropDAO_JPAUtil_2" data-points="W3sieCI6MjEzLjc2NTYyNSwieSI6MzU1LjQ5ODk0OTA1NDE0ODc0fSx7IngiOjI2Ni45OTIxODc1LCJ5IjozNjN9LHsieCI6MzIwLjIxODc1LCJ5IjozNjN9XQ==" data-look="classic" marker-end="url(#my-svg_class-dependencyEnd)"/><path d="M213.766,272.13L222.637,266.192C231.508,260.253,249.25,248.377,276.539,232.763C303.827,217.148,340.662,197.797,359.08,188.121L377.497,178.445" id="my-svg-id_DropDAO_Drop_3" class="edge-thickness-normal edge-pattern-dashed relation" style=";;;" data-edge="true" data-et="edge" data-id="id_DropDAO_Drop_3" data-points="W3sieCI6MjEzLjc2NTYyNSwieSI6MjcyLjEyOTk5MTk5Mjc5MzV9LHsieCI6MjY2Ljk5MjE4NzUsInkiOjIzNi41fSx7IngiOjM4Mi44MDg1OTM3NSwieSI6MTc1LjY1NDcxMjYwMDk4NDN9XQ==" data-look="classic" marker-end="url(#my-svg_class-dependencyEnd)"/></g><g class="edgeLabels"><g class="edgeLabel" transform="translate(266.9921875, 104)"><g class="label" data-id="id_Usuario_Drop_1" transform="translate(-19.1484375, -12)"><foreignObject width="38.296875" height="24"><div xmlns="http://www.w3.org/1999/xhtml" class="labelBkg" style="display: table-cell; white-space: nowrap; line-height: 1.5; max-width: 200px; text-align: center;"><span class="edgeLabel"><p>autor</p></span></div></foreignObject></g></g><g class="edgeLabel" transform="translate(266.9921875, 363)"><g class="label" data-id="id_DropDAO_JPAUtil_2" transform="translate(-11.8125, -12)"><foreignObject width="23.625" height="24"><div xmlns="http://www.w3.org/1999/xhtml" class="labelBkg" style="display: table-cell; white-space: nowrap; line-height: 1.5; max-width: 200px; text-align: center;"><span class="edgeLabel"><p>usa</p></span></div></foreignObject></g></g><g class="edgeLabel" transform="translate(296.54917, 220.97195)"><g class="label" data-id="id_DropDAO_Drop_3" transform="translate(-28.2265625, -12)"><foreignObject width="56.453125" height="24"><div xmlns="http://www.w3.org/1999/xhtml" class="labelBkg" style="display: table-cell; white-space: nowrap; line-height: 1.5; max-width: 200px; text-align: center;"><span class="edgeLabel"><p>persiste</p></span></div></foreignObject></g></g><g class="edgeTerminals" transform="translate(198.2343775, 119)"><g class="inner" transform="translate(-2.890625, -8.25)"><foreignObject width="5.78125" height="16.5" style="width: 9px; height: 12px;"><div xmlns="http://www.w3.org/1999/xhtml" style="display: table-cell; white-space: nowrap; line-height: 1.5;"><span class="edgeLabel"><p>1</p></span></div></foreignObject></g></g><g class="edgeTerminals" transform="translate(361.96397619695045, 94.37487290059566)"><g class="inner" transform="translate(-2.0234375, -8.25)"/><foreignObject width="4.046875" height="16.5" style="width: 9px; height: 12px;"><div xmlns="http://www.w3.org/1999/xhtml" style="display: table-cell; white-space: nowrap; line-height: 1.5;"><span class="edgeLabel"><p>*</p></span></div></foreignObject></g></g><g class="nodes"><g class="node default" id="my-svg-classId-Usuario-0" data-look="classic" transform="translate(110.8828125, 104)"><g class="basic label-container outer-path"><path d="M-69.8515625 -96 L69.8515625 -96 L69.8515625 96 L-69.8515625 96" stroke="none" stroke-width="0" fill="#ECECFF" style=""/><path d="M-69.8515625 -96 C-17.76735571386618 -96, 34.31685107226764 -96, 69.8515625 -96 M-69.8515625 -96 C-39.378710216191294 -96, -8.905857932382595 -96, 69.8515625 -96 M69.8515625 -96 C69.8515625 -26.431097464539178, 69.8515625 43.137805070921644, 69.8515625 96 M69.8515625 -96 C69.8515625 -22.751834257129076, 69.8515625 50.49633148574185, 69.8515625 96 M69.8515625 96 C31.03311449490814 96, -7.785333510183719 96, -69.8515625 96 M69.8515625 96 C20.146819954495648 96, -29.557922591008705 96, -69.8515625 96 M-69.8515625 96 C-69.8515625 42.54087404622125, -69.8515625 -10.918251907557504, -69.8515625 -96 M-69.8515625 96 C-69.8515625 31.88744088156963, -69.8515625 -32.22511823686074, -69.8515625 -96" stroke="#9370DB" stroke-width="1.3" fill="none" stroke-dasharray="0 0" style=""/></g><g class="annotation-group text" transform="translate(0, -72)"/><g class="label-group text" transform="translate(-28.1875, -72)"><g class="label" style="font-weight: bolder" transform="translate(0,-12)"><foreignObject width="56.375" height="24"><div xmlns="http://www.w3.org/1999/xhtml" style="display: table-cell; white-space: nowrap; line-height: 1.5; max-width: 102px; text-align: center;"><span class="nodeLabel markdown-node-label" style=""><p>Usuario</p></span></div></foreignObject></g></g><g class="members-group text" transform="translate(-57.8515625, -24)"><g class="label" style="" transform="translate(0,-12)"><foreignObject width="51.765625" height="24"><div xmlns="http://www.w3.org/1999/xhtml" style="display: table-cell; white-space: nowrap; line-height: 1.5; max-width: 102px; text-align: center;"><span class="nodeLabel markdown-node-label" style=""><p>Long id</p></span></div></foreignObject></g><g class="label" style="" transform="translate(0,12)"><foreignObject width="85.75" height="24"><div xmlns="http://www.w3.org/1999/xhtml" style="display: table-cell; white-space: nowrap; line-height: 1.5; max-width: 129px; text-align: center;"><span class="nodeLabel markdown-node-label" style=""><p>String nome</p></span></div></foreignObject></g><g class="label" style="" transform="translate(0,36)"><foreignObject width="86.109375" height="24"><div xmlns="http://www.w3.org/1999/xhtml" style="display: table-cell; white-space: nowrap; line-height: 1.5; max-width: 129px; text-align: center;"><span class="nodeLabel markdown-node-label" style=""><p>String email</p></span></div></foreignObject></g><g class="label" style="" transform="translate(0,60)"><foreignObject width="87.515625" height="24"><div xmlns="http://www.w3.org/1999/xhtml" style="display: table-cell; white-space: nowrap; line-height: 1.5; max-width: 130px; text-align: center;"><span class="nodeLabel markdown-node-label" style=""><p>String senha</p></span></div></foreignObject></g></g><g class="methods-group text" transform="translate(-57.8515625, 96)"/><g class="divider" style=""><path d="M-69.8515625 -48 C-24.544037426053222 -47.999675687103824, 20.763487647893555 -47.99935137420764, 69.8515625 -47.999 M-69.8515625 -48 C-37.89068273864426 -47.99977122287164, -5.929802977288524 -47.999542445743266, 69.8515625 -47.999" stroke="#9370DB" stroke-width="1.3" fill="none" stroke-dasharray="0 0" style=""/></g><g class="divider" style=""><path d="M-69.8515625 72 C-17.917510160323623 72.00037174581699, 34.016542179352754 72.000743491634, 69.8515625 72.001 M-69.8515625 72 C-27.72604824610994 72.00030153594814, 14.39946600778012 72.00060307189626, 69.8515625 72.001" stroke="#9370DB" stroke-width="1.3" fill="none" stroke-dasharray="0 0" style=""/></g></g><g class="node default" id="my-svg-classId-Drop-1" data-look="classic" transform="translate(477.32421875, 126)"><g class="basic label-container outer-path"><path d="M-94.515625 -96 L94.515625 -96 L94.515625 96 L-94.515625 96" stroke="none" stroke-width="0" fill="#ECECFF" style=""/><path d="M-94.515625 -96 C-49.37670096692869 -96, -4.237776933857376 -96, 94.515625 -96 M-94.515625 -96 C-41.109769607286374 -96, 12.296085785427252 -96, 94.515625 -96 M94.515625 -96 C94.515625 -36.05335890952055, 94.515625 23.893282180958906, 94.515625 96 M94.515625 -96 C94.515625 -50.45503768772693, 94.515625 -4.910075375453857, 94.515625 96 M94.515625 96 C43.57560194253986 96, -7.364421114920276 96, -94.515625 96 M94.515625 96 C55.32315018463866 96, 16.130675369277327 96, -94.515625 96 M-94.515625 96 C-94.515625 47.92845790760086, -94.515625 -0.14308418479828333, -94.515625 -96 M-94.515625 96 C-94.515625 46.556386164328956, -94.515625 -2.887227671342089, -94.515625 -96" stroke="#9370DB" stroke-width="1.3" fill="none" stroke-dasharray="0 0" style=""/></g><g class="annotation-group text" transform="translate(0, -72)"/><g class="label-group text" transform="translate(-17.75, -72)"><g class="label" style="font-weight: bolder" transform="translate(0,-12)"><foreignObject width="35.5" height="24"><div xmlns="http://www.w3.org/1999/xhtml" style="display: table-cell; white-space: nowrap; line-height: 1.5; max-width: 84px; text-align: center;"><span class="nodeLabel markdown-node-label" style=""><p>Drop</p></span></div></foreignObject></g></g><g class="members-group text" transform="translate(-82.515625, -24)"><g class="label" style="" transform="translate(0,-12)"><foreignObject width="51.765625" height="24"><div xmlns="http://www.w3.org/1999/xhtml" style="display: table-cell; white-space: nowrap; line-height: 1.5; max-width: 102px; text-align: center;"><span class="nodeLabel markdown-node-label" style=""><p>Long id</p></span></div></foreignObject></g><g class="label" style="" transform="translate(0,12)"><foreignObject width="85.71875" height="24"><div xmlns="http://www.w3.org/1999/xhtml" style="display: table-cell; white-space: nowrap; line-height: 1.5; max-width: 127px; text-align: center;"><span class="nodeLabel markdown-node-label" style=""><p>String titulo</p></span></div></foreignObject></g><g class="label" style="" transform="translate(0,36)"><foreignObject width="112.984375" height="24"><div xmlns="http://www.w3.org/1999/xhtml" style="display: table-cell; white-space: nowrap; line-height: 1.5; max-width: 152px; text-align: center;"><span class="nodeLabel markdown-node-label" style=""><p>String conteudo</p></span></div></foreignObject></g><g class="label" style="" transform="translate(0,60)"><foreignObject width="147.28125" height="24"><div xmlns="http://www.w3.org/1999/xhtml" style="display: table-cell; white-space: nowrap; line-height: 1.5; max-width: 182px; text-align: center;"><span class="nodeLabel markdown-node-label" style=""><p>Date dataPublicacao</p></span></div></foreignObject></g></g><g class="methods-group text" transform="translate(-82.515625, 96)"/><g class="divider" style=""><path d="M-94.515625 -48 C-47.71031756311594 -47.99975239381088, -0.9050101262318861 -47.99950478762177, 94.515625 -47.999 M-94.515625 -48 C-41.621594454036774 -47.99972018367045, 11.272436091926451 -47.999440367340895, 94.515625 -47.999" stroke="#9370DB" stroke-width="1.3" fill="none" stroke-dasharray="0 0" style=""/></g><g class="divider" style=""><path d="M-94.515625 72 C-24.575773403320213 72.0003699909491, 45.364078193359575 72.0007399818982, 94.515625 72.001 M-94.515625 72 C-26.851504655442838 72.00035795203357, 40.812615689114324 72.00071590406714, 94.515625 72.001" stroke="#9370DB" stroke-width="1.3" fill="none" stroke-dasharray="0 0" style=""/></g></g><g class="node default" id="my-svg-classId-DropDAO-2" data-look="classic" transform="translate(110.8828125, 341)"><g class="basic label-container outer-path"><path d="M-102.8828125 -75 L102.8828125 -75 L102.8828125 75 L-102.8828125 75" stroke="none" stroke-width="0" fill="#ECECFF" style=""/><path d="M-102.8828125 -75 C-30.795510840209943 -75, 41.291790819580115 -75, 102.8828125 -75 M-102.8828125 -75 C-25.26879232146584 -75, 52.34522785706832 -75, 102.8828125 -75 M102.8828125 -75 C102.8828125 -36.880608251520336, 102.8828125 1.2387834969593285, 102.8828125 75 M102.8828125 -75 C102.8828125 -25.871291328843157, 102.8828125 23.257417342313687, 102.8828125 75 M102.8828125 75 C42.986240831240636 75, -16.91033083751873 75, -102.8828125 75 M102.8828125 75 C21.134522595089052 75, -60.613767309821895 75, -102.8828125 75 M-102.8828125 75 C-102.8828125 39.38610496060513, -102.8828125 3.772209921210262, -102.8828125 -75 M-102.8828125 75 C-102.8828125 23.243118084775567, -102.8828125 -28.513763830448866, -102.8828125 -75" stroke="#9370DB" stroke-width="1.3" fill="none" stroke-dasharray="0 0" style=""/></g><g class="annotation-group text" transform="translate(0, -51)"/><g class="label-group text" transform="translate(-33.578125, -51)"><g class="label" style="font-weight: bolder" transform="translate(0,-12)"><foreignObject width="67.15625" height="24"><div xmlns="http://www.w3.org/1999/xhtml" style="display: table-cell; white-space: nowrap; line-height: 1.5; max-width: 119px; text-align: center;"><span class="nodeLabel markdown-node-label" style=""><p>DropDAO</p></span></div></foreignObject></g></g><g class="members-group text" transform="translate(-90.8828125, -3)"/><g class="methods-group text" transform="translate(-90.8828125, 27)"><g class="label" style="" transform="translate(0,-12)"><foreignObject width="133.1875" height="24"><div xmlns="http://www.w3.org/1999/xhtml" style="display: table-cell; white-space: nowrap; line-height: 1.5; max-width: 180px; text-align: center;"><span class="nodeLabel markdown-node-label" style=""><p>+salvar(Drop drop)</p></span></div></foreignObject></g><g class="label" style="" transform="translate(0,12)"><foreignObject width="148.1875" height="24"><div xmlns="http://www.w3.org/1999/xhtml" style="display: table-cell; white-space: nowrap; line-height: 1.5; max-width: 232px; text-align: center;"><span class="nodeLabel markdown-node-label" style=""><p>+listar() : List&lt;Drop&gt;</p></span></div></foreignObject></g></g><g class="divider" style=""><path d="M-102.8828125 -27 C-29.22138283273803 -26.99964201294717, 44.44004683452394 -26.99928402589434, 102.8828125 -26.999 M-102.8828125 -27 C-40.82010657692561 -26.99969838156435, 21.24259934614878 -26.9993967631287, 102.8828125 -26.999" stroke="#9370DB" stroke-width="1.3" fill="none" stroke-dasharray="0 0" style=""/></g><g class="divider" style=""><path d="M-102.8828125 -3 C-43.18628470847938 -2.999709880949301, 16.510243083041246 -2.9994197618986016, 102.8828125 -2.999 M-102.8828125 -3 C-60.08446020658776 -2.999792004362763, -17.286107913175513 -2.999584008725525, 102.8828125 -2.999" stroke="#9370DB" stroke-width="1.3" fill="none" stroke-dasharray="0 0" style=""/></g></g><g class="node default" id="my-svg-classId-JPAUtil-3" data-look="classic" transform="translate(477.32421875, 363)"><g class="basic label-container outer-path"><path d="M-157.10546875 -63 L157.10546875 -63 L157.10546875 63 L-157.10546875 63" stroke="none" stroke-width="0" fill="#ECECFF" style=""/><path d="M-157.10546875 -63 C-52.89172887455234 -63, 51.322011000895316 -63, 157.10546875 -63 M-157.10546875 -63 C-68.59087965143638 -63, 19.923709447127237 -63, 157.10546875 -63 M157.10546875 -63 C157.10546875 -33.20771650492479, 157.10546875 -3.415433009849572, 157.10546875 63 M157.10546875 -63 C157.10546875 -15.319914045679937, 157.10546875 32.360171908640126, 157.10546875 63 M157.10546875 63 C51.04191662858112 63, -55.02163549283776 63, -157.10546875 63 M157.10546875 63 C45.4644228889709 63, -66.1766229720582 63, -157.10546875 63 M-157.10546875 63 C-157.10546875 19.06193129589169, -157.10546875 -24.87613740821662, -157.10546875 -63 M-157.10546875 63 C-157.10546875 31.720400539468127, -157.10546875 0.44080107893625353, -157.10546875 -63" stroke="#9370DB" stroke-width="1.3" fill="none" stroke-dasharray="0 0" style=""/></g><g class="annotation-group text" transform="translate(0, -39)"/><g class="label-group text" transform="translate(-26.7734375, -39)"><g class="label" style="font-weight: bolder" transform="translate(0,-12)"><foreignObject width="53.546875" height="24"><div xmlns="http://www.w3.org/1999/xhtml" style="display: table-cell; white-space: nowrap; line-height: 1.5; max-width: 101px; text-align: center;"><span class="nodeLabel markdown-node-label" style=""><p>JPAUtil</p></span></div></foreignObject></g></g><g class="members-group text" transform="translate(-145.10546875, 9)"/><g class="methods-group text" transform="translate(-145.10546875, 39)"><g class="label" style="" transform="translate(0,-12)"><foreignObject width="263.4375" height="24"><div xmlns="http://www.w3.org/1999/xhtml" style="display: table-cell; white-space: nowrap; line-height: 1.5; max-width: 300px; text-align: center;"><span class="nodeLabel markdown-node-label" style=""><p>+getEntityManager() : EntityManager</p></span></div></foreignObject></g></g><g class="divider" style=""><path d="M-157.10546875 -15 C-48.306843207682974 -14.99965374017083, 60.49178233463405 -14.99930748034166, 157.10546875 -14.999 M-157.10546875 -15 C-87.54866869188008 -14.999778630239254, -17.991868633760163 -14.99955726047851, 157.10546875 -14.999" stroke="#9370DB" stroke-width="1.3" fill="none" stroke-dasharray="0 0" style=""/></g><g class="divider" style=""><path d="M-157.10546875 9 C-46.12516628816634 9.000353203180465, 64.85513617366732 9.00070640636093, 157.10546875 9.001 M-157.10546875 9 C-47.71976404753802 9.000348128252863, 61.66594065492396 9.000696256505726, 157.10546875 9.001" stroke="#9370DB" stroke-width="1.3" fill="none" stroke-dasharray="0 0" style=""/></g></g></g></g></g><defs><filter id="my-svg-drop-shadow" height="130%" width="130%"><feDropShadow dx="4" dy="4" stdDeviation="0" flood-opacity="0.06" flood-color="#000000"/></filter></defs><defs><filter id="my-svg-drop-shadow-small" height="150%" width="150%"><feDropShadow dx="2" dy="2" stdDeviation="0" flood-opacity="0.06" flood-color="#000000"/></filter></defs></svg>