<svg id="my-svg" width="100%" xmlns="http://www.w3.org/2000/svg" xmlns:xlink="http://www.w3.org/1999/xlink" class="classDiagram" style="max-width: 606.482px; background-color: transparent;" viewBox="0 0 606.482421875 474" role="graphics-document document" aria-roledescription="class"><style>#my-svg{font-family:"trebuchet ms",verdana,arial,sans-serif;font-size:16px;fill:#333;}@keyframes edge-animation-frame{from{stroke-dashoffset:0;}}@keyframes dash{to{stroke-dashoffset:0;}}#my-svg .edge-animation-slow{stroke-dasharray:9,5!important;stroke-dashoffset:900;animation:dash 50s linear infinite;stroke-linecap:round;}#my-svg .edge-animation-fast{stroke-dasharray:9,5!important;stroke-dashoffset:900;animation:dash 20s linear infinite;stroke-linecap:round;}#my-svg .error-icon{fill:#552222;}#my-svg .error-text{fill:#552222;stroke:#552222;}#my-svg .edge-thickness-normal{stroke-width:1px;}#my-svg .edge-thickness-thick{stroke-width:3.5px;}#my-svg .edge-pattern-solid{stroke-dasharray:0;}#my-svg .edge-thickness-invisible{stroke-width:0;fill:none;}#my-svg .edge-pattern-dashed{stroke-dasharray:3;}#my-svg .edge-pattern-dotted{stroke-dasharray:2;}#my-svg .marker{fill:#333333;stroke:#333333;}#my-svg .marker.cross{stroke:#333333;}#my-svg svg{font-family:"trebuchet ms",verdana,arial,sans-serif;font-size:16px;}#my-svg p{margin:0;}#my-svg g.classGroup text{fill:#9370DB;stroke:none;font-family:"trebuchet ms",verdana,arial,sans-serif;font-size:10px;}#my-svg g.classGroup text .title{font-weight:bolder;}#my-svg .cluster-label text{fill:#333;}#my-svg .cluster-label span{color:#333;}#my-svg .cluster-label span p{background-color:transparent;}#my-svg .cluster rect{fill:#ffffde;stroke:#aaaa33;stroke-width:1px;}#my-svg .cluster text{fill:#333;}#my-svg .cluster span{color:#333;}#my-svg .nodeLabel,#my-svg .edgeLabel{color:#131300;}#my-svg .noteLabel .nodeLabel,#my-svg .noteLabel .edgeLabel{color:black;}#my-svg .edgeLabel .label rect{fill:#ECECFF;}#my-svg .label text{fill:#131300;}#my-svg .labelBkg{background:#ECECFF;}#my-svg .edgeLabel .label span{background:#ECECFF;}#my-svg .classTitle{font-weight:bolder;}#my-svg .node rect,#my-svg .node circle,#my-svg .node ellipse,#my-svg .node polygon,#my-svg .node path{fill:#ECECFF;stroke:#9370DB;stroke-width:1;}#my-svg .divider{stroke:#9370DB;stroke-width:1;}#my-svg g.clickable{cursor:pointer;}#my-svg g.classGroup rect{fill:#ECECFF;stroke:#9370DB;}#my-svg g.classGroup line{stroke:#9370DB;stroke-width:1;}#my-svg .classLabel .box{stroke:none;stroke-width:0;fill:#ECECFF;opacity:0.5;}#my-svg .classLabel .label{fill:#9370DB;font-size:10px;}#my-svg .relation{stroke:#333333;stroke-width:1;fill:none;}#my-svg .dashed-line{stroke-dasharray:3;}#my-svg .dotted-line{stroke-dasharray:1 2;}#my-svg [id$="-compositionStart"],#my-svg .composition{fill:#333333!important;stroke:#333333!important;stroke-width:1;}#my-svg [id$="-compositionEnd"],#my-svg .composition{fill:#333333!important;stroke:#333333!important;stroke-width:1;}#my-svg [id$="-dependencyStart"],#my-svg .dependency{fill:#333333!important;stroke:#333333!important;stroke-width:1;}#my-svg [id$="-dependencyEnd"],#my-svg .dependency{fill:#333333!important;stroke:#333333!important;stroke-width:1;}#my-svg [id$="-extensionStart"],#my-svg .extension{fill:transparent!important;stroke:#333333!important;stroke-width:1;}#my-svg [id$="-extensionEnd"],#my-svg .extension{fill:transparent!important;stroke:#333333!important;stroke-width:1;}#my-svg [id$="-aggregationStart"],#my-svg .aggregation{fill:transparent!important;stroke:#333333!important;stroke-width:1;}#my-svg [id$="-aggregationEnd"],#my-svg .aggregation{fill:transparent!important;stroke:#333333!important;stroke-width:1;}#my-svg [id$="-lollipopStart"],#my-svg .lollipop{fill:#ECECFF!important;stroke:#333333!important;stroke-width:1;}#my-svg [id$="-lollipopEnd"],#my-svg .lollipop{fill:#ECECFF!important;stroke:#333333!important;stroke-width:1;}#my-svg .edgeTerminals{font-size:11px;line-height:initial;}#my-svg .classTitleText{text-anchor:middle;font-size:18px;fill:#333;}#my-svg .edgeLabel[data-look="neo"]{background-color:rgba(232,232,232, 0.8);text-align:center;}#my-svg .edgeLabel[data-look="neo"] p{background-color:rgba(232,232,232, 0.8);}#my-svg .edgeLabel[data-look="neo"] rect{opacity:0.5;background-color:rgba(232,232,232, 0.8);fill:rgba(232,232,232, 0.8);}#my-svg .label-icon{display:inline-block;height:1em;overflow:visible;vertical-align:-0.125em;}#my-svg .node .label-icon path{fill:currentColor;stroke:revert;stroke-width:revert;}#my-svg .node .neo-node{stroke:#9370DB;}#my-svg [data-look="neo"].node rect,#my-svg [data-look="neo"].cluster rect,#my-svg [data-look="neo"].node polygon{stroke:#9370DB;filter:drop-shadow(1px 2px 2px rgba(185, 185, 185, 1));}#my-svg [data-look="neo"].node path{stroke:#9370DB;stroke-width:1px;}#my-svg [data-look="neo"].node .outer-path{filter:drop-shadow(1px 2px 2px rgba(185, 185, 185, 1));}#my-svg [data-look="neo"].node .neo-line path{stroke:#9370DB;filter:none;}#my-svg [data-look="neo"].node circle{stroke:#9370DB;filter:drop-shadow(1px 2px 2px rgba(185, 185, 185, 1));}#my-svg [data-look="neo"].node circle .state-start{fill:#000000;}#my-svg [data-look="neo"].icon-shape .icon{fill:#9370DB;filter:drop-shadow(1px 2px 2px rgba(185, 185, 185, 1));}#my-svg [data-look="neo"].icon-shape .icon-neo path{stroke:#9370DB;filter:drop-shadow(1px 2px 2px rgba(185, 185, 185, 1));}#my-svg :root{--mermaid-font-family:"trebuchet ms",verdana,arial,sans-serif;}</style><g><defs><marker id="my-svg_class-aggregationStart" class="marker aggregation class" refX="18" refY="7" markerWidth="190" markerHeight="240" orient="auto"><path d="M 18,7 L9,13 L1,7 L9,1 Z"/></marker></defs><defs><marker id="my-svg_class-aggregationEnd" class="marker aggregation class" refX="1" refY="7" markerWidth="20" markerHeight="28" orient="auto"><path d="M 18,7 L9,13 L1,7 L9,1 Z"/></marker></defs><defs><marker id="my-svg_class-aggregationStart-margin" class="marker aggregation class" refX="15" refY="7" markerWidth="190" markerHeight="240" orient="auto" markerUnits="userSpaceOnUse"><path d="M 18,7 L9,13 L1,7 L9,1 Z" style="stroke-width: 2;"/></marker></defs><defs><marker id="my-svg_class-aggregationEnd-margin" class="marker aggregation class" refX="1" refY="7" markerWidth="20" markerHeight="28" orient="auto" markerUnits="userSpaceOnUse"><path d="M 18,7 L9,13 L1,7 L9,1 Z" style="stroke-width: 2;"/></marker></defs><defs><marker id="my-svg_class-extensionStart" class="marker extension class" refX="18" refY="7" markerWidth="190" markerHeight="240" orient="auto" markerUnits="userSpaceOnUse"><path d="M 1,7 L18,13 V 1 Z"/></marker></defs><defs><marker id="my-svg_class-extensionEnd" class="marker extension class" refX="1" refY="7" markerWidth="20" markerHeight="28" orient="auto"><path d="M 1,1 V 13 L18,7 Z"/></marker></defs><marker id="my-svg_class-extensionStart-margin" class="marker extension class" refX="18" refY="7" markerWidth="20" markerHeight="28" orient="auto" markerUnits="userSpaceOnUse" viewBox="0 0 20 14"><polygon points="10,7 18,13 18,1" style="stroke-width: 2; stroke-dasharray: 0;"/></marker><defs><marker id="my-svg_class-extensionEnd-margin" class="marker extension class" refX="9" refY="7" markerWidth="20" markerHeight="28" orient="auto" markerUnits="userSpaceOnUse" viewBox="0 0 20 14"><polygon points="10,1 10,13 18,7" style="stroke-width: 2; stroke-dasharray: 0;"/></marker></defs><defs><marker id="my-svg_class-compositionStart" class="marker composition class" refX="18" refY="7" markerWidth="190" markerHeight="240" orient="auto"><path d="M 18,7 L9,13 L1,7 L9,1 Z"/></marker></defs><defs><marker id="my-svg_class-compositionEnd" class="marker composition class" refX="1" refY="7" markerWidth="20" markerHeight="28" orient="auto"><path d="M 18,7 L9,13 L1,7 L9,1 Z"/></marker></defs><defs><marker id="my-svg_class-compositionStart-margin" class="marker composition class" refX="15" refY="7" markerWidth="190" markerHeight="240" orient="auto" markerUnits="userSpaceOnUse"><path viewBox="0 0 15 15" d="M 18,7 L9,13 L1,7 L9,1 Z" style="stroke-width: 0;"/></marker></defs><defs><marker id="my-svg_class-compositionEnd-margin" class="marker composition class" refX="3.5" refY="7" markerWidth="20" markerHeight="28" orient="auto" markerUnits="userSpaceOnUse"><path d="M 18,7 L9,13 L1,7 L9,1 Z" style="stroke-width: 0;"/></marker></defs><defs><marker id="my-svg_class-dependencyStart" class="marker dependency class" refX="6" refY="7" markerWidth="190" markerHeight="240" orient="auto"><path d="M 5,7 L9,13 L1,7 L9,1 Z"/></marker></defs><defs><marker id="my-svg_class-dependencyEnd" class="marker dependency class" refX="13" refY="7" markerWidth="20" markerHeight="28" orient="auto"><path d="M 18,7 L9,13 L14,7 L9,1 Z"/></marker></defs><defs><marker id="my-svg_class-dependencyStart-margin" class="marker dependency class" refX="4" refY="7" markerWidth="190" markerHeight="240" orient="auto" markerUnits="userSpaceOnUse"><path d="M 5,7 L9,13 L1,7 L9,1 Z" style="stroke-width: 0;"/></marker></defs><defs><marker id="my-svg_class-dependencyEnd-margin" class="marker dependency class" refX="16" refY="7" markerWidth="20" markerHeight="28" orient="auto" markerUnits="userSpaceOnUse"><path d="M 18,7 L9,13 L14,7 L9,1 Z" style="stroke-width: 0;"/></marker></defs><defs><marker id="my-svg_class-lollipopStart" class="marker lollipop class" refX="13" refY="7" markerWidth="190" markerHeight="240" orient="auto"><circle fill="transparent" cx="7" cy="7" r="6"/></marker></defs><defs><marker id="my-svg_class-lollipopEnd" class="marker lollipop class" refX="1" refY="7" markerWidth="190" markerHeight="240" orient="auto"><circle fill="transparent" cx="7" cy="7" r="6"/></marker></defs><defs><marker id="my-svg_class-lollipopStart-margin" class="marker lollipop class" refX="13" refY="7" markerWidth="190" markerHeight="240" orient="auto" markerUnits="userSpaceOnUse"><circle fill="transparent" cx="7" cy="7" r="6" stroke-width="2"/></marker></defs><defs><marker id="my-svg_class-lollipopEnd-margin" class="marker lollipop class" refX="1" refY="7" markerWidth="190" markerHeight="240" orient="auto" markerUnits="userSpaceOnUse"><circle fill="transparent" cx="7" cy="7" r="6" stroke-width="2"/></marker></defs><g class="root"><g class="clusters"/><g class="edgePaths"><path d="M82.047,206L82.047,211.167C82.047,216.333,82.047,226.667,83.609,238C85.171,249.333,88.295,261.667,89.857,267.833L91.419,274" id="my-svg-id_Usuario_Drop_1" class="edge-thickness-normal edge-pattern-solid relation" style=";;;" data-edge="true" data-et="edge" data-id="id_Usuario_Drop_1" data-points="W3sieCI6ODIuMDQ2ODc1LCJ5IjoyMDB9LHsieCI6ODIuMDQ2ODc1LCJ5IjoyMzd9LHsieCI6OTEuNDE4NTg1NTI2MzE1OCwieSI6Mjc0fV0=" data-look="classic" marker-start="url(#my-svg_class-dependencyStart)"/><path d="M299.644,179L288.725,188.667C277.806,198.333,255.967,217.667,240.223,232.753C224.48,247.839,214.831,258.679,210.006,264.099L205.182,269.518" id="my-svg-id_DropDAO_Drop_2" class="edge-thickness-normal edge-pattern-dashed relation" style=";;;" data-edge="true" data-et="edge" data-id="id_DropDAO_Drop_2" data-points="W3sieCI6Mjk5LjY0Mzc5Njk5MjQ4MTIsInkiOjE3OX0seyJ4IjoyMzQuMTI4OTA2MjUsInkiOjIzN30seyJ4IjoyMDEuMTkyMDgxNzY2OTE3MjgsInkiOjI3NH1d" data-look="classic" marker-end="url(#my-svg_class-dependencyEnd)"/><path d="M419.531,179L424.064,188.667C428.597,198.333,437.663,217.667,442.196,238C446.729,258.333,446.729,279.667,446.729,290.333L446.729,301" id="my-svg-id_DropDAO_JPAUtil_3" class="edge-thickness-normal edge-pattern-dashed relation" style=";;;" data-edge="true" data-et="edge" data-id="id_DropDAO_JPAUtil_3" data-points="W3sieCI6NDE5LjUzMDc5NDc2MDMzODMsInkiOjE3OX0seyJ4Ijo0NDYuNzI4NTE1NjI1LCJ5IjoyMzd9LHsieCI6NDQ2LjcyODUxNTYyNSwieSI6MzA3fV0=" data-look="classic" marker-end="url(#my-svg_class-dependencyEnd)"/></g><g class="edgeLabels"><g class="edgeLabel" transform="translate(82.046875, 237)"><g class="label" data-id="id_Usuario_Drop_1" transform="translate(-19.1484375, -12)"><foreignObject width="38.296875" height="24"><div xmlns="http://www.w3.org/1999/xhtml" class="labelBkg" style="display: table-cell; white-space: nowrap; line-height: 1.5; max-width: 200px; text-align: center;"><span class="edgeLabel"><p>autor</p></span></div></foreignObject></g></g><g class="edgeLabel" transform="translate(248.34139, 224.41776)"><g class="label" data-id="id_DropDAO_Drop_2" transform="translate(-28.2265625, -12)"><foreignObject width="56.453125" height="24"><div xmlns="http://www.w3.org/1999/xhtml" class="labelBkg" style="display: table-cell; white-space: nowrap; line-height: 1.5; max-width: 200px; text-align: center;"><span class="edgeLabel"><p>persiste</p></span></div></foreignObject></g></g><g class="edgeLabel" transform="translate(446.728515625, 237)"><g class="label" data-id="id_DropDAO_JPAUtil_3" transform="translate(-76.5078125, -12)"><foreignObject width="153.015625" height="24"><div xmlns="http://www.w3.org/1999/xhtml" class="labelBkg" style="display: table-cell; white-space: nowrap; line-height: 1.5; max-width: 200px; text-align: center;"><span class="edgeLabel"><p>obtem EntityManager</p></span></div></foreignObject></g></g><g class="edgeTerminals" transform="translate(67.04687750000015, 217.50000214285714)"><g class="inner" transform="translate(-2.890625, -8.25)"><foreignObject width="5.78125" height="16.5" style="width: 9px; height: 12px;"><div xmlns="http://www.w3.org/1999/xhtml" style="display: table-cell; white-space: nowrap; line-height: 1.5;"><span class="edgeLabel"><p>1</p></span></div></foreignObject></g></g><g class="edgeTerminals" transform="translate(96.66252629365052, 248.35268567061306)"><g class="inner" transform="translate(-8.9453125, -8.25)"/><foreignObject width="17.890625" height="16.5" style="width: 36px; height: 12px;"><div xmlns="http://www.w3.org/1999/xhtml" style="display: table-cell; white-space: nowrap; line-height: 1.5;"><span class="edgeLabel"><p>0..*</p></span></div></foreignObject></g></g><g class="nodes"><g class="node default" id="my-svg-classId-Usuario-0" data-look="classic" transform="translate(82.046875, 104)"><g class="basic label-container outer-path"><path d="M-74.046875 -96 L74.046875 -96 L74.046875 96 L-74.046875 96" stroke="none" stroke-width="0" fill="#ECECFF" style=""/><path d="M-74.046875 -96 C-31.86421643980008 -96, 10.318442120399837 -96, 74.046875 -96 M-74.046875 -96 C-40.554748397871016 -96, -7.062621795742032 -96, 74.046875 -96 M74.046875 -96 C74.046875 -51.83929275442591, 74.046875 -7.678585508851825, 74.046875 96 M74.046875 -96 C74.046875 -50.41676163777224, 74.046875 -4.833523275544479, 74.046875 96 M74.046875 96 C43.24381922893304 96, 12.440763457866083 96, -74.046875 96 M74.046875 96 C27.87349433720218 96, -18.299886325595637 96, -74.046875 96 M-74.046875 96 C-74.046875 54.01354286127121, -74.046875 12.027085722542424, -74.046875 -96 M-74.046875 96 C-74.046875 31.6551712282688, -74.046875 -32.6896575434624, -74.046875 -96" stroke="#9370DB" stroke-width="1.3" fill="none" stroke-dasharray="0 0" style=""/></g><g class="annotation-group text" transform="translate(0, -72)"/><g class="label-group text" transform="translate(-28.1875, -72)"><g class="label" style="font-weight: bolder" transform="translate(0,-12)"><foreignObject width="56.375" height="24"><div xmlns="http://www.w3.org/1999/xhtml" style="display: table-cell; white-space: nowrap; line-height: 1.5; max-width: 102px; text-align: center;"><span class="nodeLabel markdown-node-label" style=""><p>Usuario</p></span></div></foreignObject></g></g><g class="members-group text" transform="translate(-62.046875, -24)"><g class="label" style="" transform="translate(0,-12)"><foreignObject width="60.15625" height="24"><div xmlns="http://www.w3.org/1999/xhtml" style="display: table-cell; white-space: nowrap; line-height: 1.5; max-width: 116px; text-align: center;"><span class="nodeLabel markdown-node-label" style=""><p>+Long id</p></span></div></foreignObject></g><g class="label" style="" transform="translate(0,12)"><foreignObject width="94.140625" height="24"><div xmlns="http://www.w3.org/1999/xhtml" style="display: table-cell; white-space: nowrap; line-height: 1.5; max-width: 143px; text-align: center;"><span class="nodeLabel markdown-node-label" style=""><p>+String nome</p></span></div></foreignObject></g><g class="label" style="" transform="translate(0,36)"><foreignObject width="94.5" height="24"><div xmlns="http://www.w3.org/1999/xhtml" style="display: table-cell; white-space: nowrap; line-height: 1.5; max-width: 144px; text-align: center;"><span class="nodeLabel markdown-node-label" style=""><p>+String email</p></span></div></foreignObject></g><g class="label" style="" transform="translate(0,60)"><foreignObject width="95.90625" height="24"><div xmlns="http://www.w3.org/1999/xhtml" style="display: table-cell; white-space: nowrap; line-height: 1.5; max-width: 145px; text-align: center;"><span class="nodeLabel markdown-node-label" style=""><p>+String senha</p></span></div></foreignObject></g></g><g class="methods-group text" transform="translate(-62.046875, 96)"/><g class="divider" style=""><path d="M-74.046875 -48 C-33.67879059766119 -47.99972741534061, 6.689293804677618 -47.99945483068121, 74.046875 -47.999 M-74.046875 -48 C-25.80887450489744 -47.9996742738941, 22.429125990205122 -47.99934854778821, 74.046875 -47.999" stroke="#9370DB" stroke-width="1.3" fill="none" stroke-dasharray="0 0" style=""/></g><g class="divider" style=""><path d="M-74.046875 72 C-22.930853440867274 72.00034515988392, 28.18516811826545 72.00069031976784, 74.046875 72.001 M-74.046875 72 C-34.56858180384878 72.00026657636258, 4.909711392302441 72.00053315272517, 74.046875 72.001" stroke="#9370DB" stroke-width="1.3" fill="none" stroke-dasharray="0 0" style=""/></g></g><g class="node default" id="my-svg-classId-Drop-1" data-look="classic" transform="translate(115.734375, 370)"><g class="basic label-container outer-path"><path d="M-98.7109375 -96 L98.7109375 -96 L98.7109375 96 L-98.7109375 96" stroke="none" stroke-width="0" fill="#ECECFF" style=""/><path d="M-98.7109375 -96 C-53.82141698924992 -96, -8.931896478499837 -96, 98.7109375 -96 M-98.7109375 -96 C-26.376528940142265 -96, 45.95787961971547 -96, 98.7109375 -96 M98.7109375 -96 C98.7109375 -41.300919816495636, 98.7109375 13.398160367008728, 98.7109375 96 M98.7109375 -96 C98.7109375 -54.857797736261304, 98.7109375 -13.715595472522608, 98.7109375 96 M98.7109375 96 C39.928024556555265 96, -18.85488838688947 96, -98.7109375 96 M98.7109375 96 C34.546699705556165 96, -29.61753808888767 96, -98.7109375 96 M-98.7109375 96 C-98.7109375 39.70316186093068, -98.7109375 -16.593676278138645, -98.7109375 -96 M-98.7109375 96 C-98.7109375 50.50443170083295, -98.7109375 5.008863401665906, -98.7109375 -96" stroke="#9370DB" stroke-width="1.3" fill="none" stroke-dasharray="0 0" style=""/></g><g class="annotation-group text" transform="translate(0, -72)"/><g class="label-group text" transform="translate(-17.75, -72)"><g class="label" style="font-weight: bolder" transform="translate(0,-12)"><foreignObject width="35.5" height="24"><div xmlns="http://www.w3.org/1999/xhtml" style="display: table-cell; white-space: nowrap; line-height: 1.5; max-width: 84px; text-align: center;"><span class="nodeLabel markdown-node-label" style=""><p>Drop</p></span></div></foreignObject></g></g><g class="members-group text" transform="translate(-86.7109375, -24)"><g class="label" style="" transform="translate(0,-12)"><foreignObject width="60.15625" height="24"><div xmlns="http://www.w3.org/1999/xhtml" style="display: table-cell; white-space: nowrap; line-height: 1.5; max-width: 116px; text-align: center;"><span class="nodeLabel markdown-node-label" style=""><p>+Long id</p></span></div></foreignObject></g><g class="label" style="" transform="translate(0,12)"><foreignObject width="94.109375" height="24"><div xmlns="http://www.w3.org/1999/xhtml" style="display: table-cell; white-space: nowrap; line-height: 1.5; max-width: 141px; text-align: center;"><span class="nodeLabel markdown-node-label" style=""><p>+String titulo</p></span></div></foreignObject></g><g class="label" style="" transform="translate(0,36)"><foreignObject width="121.375" height="24"><div xmlns="http://www.w3.org/1999/xhtml" style="display: table-cell; white-space: nowrap; line-height: 1.5; max-width: 166px; text-align: center;"><span class="nodeLabel markdown-node-label" style=""><p>+String conteudo</p></span></div></foreignObject></g><g class="label" style="" transform="translate(0,60)"><foreignObject width="155.671875" height="24"><div xmlns="http://www.w3.org/1999/xhtml" style="display: table-cell; white-space: nowrap; line-height: 1.5; max-width: 196px; text-align: center;"><span class="nodeLabel markdown-node-label" style=""><p>+Date dataPublicacao</p></span></div></foreignObject></g></g><g class="methods-group text" transform="translate(-86.7109375, 96)"/><g class="divider" style=""><path d="M-98.7109375 -48 C-30.13107258207917 -47.99965262276575, 38.44879233584166 -47.9993052455315, 98.7109375 -47.999 M-98.7109375 -48 C-47.75258593115981 -47.99974188092597, 3.2057656376803862 -47.999483761851934, 98.7109375 -47.999" stroke="#9370DB" stroke-width="1.3" fill="none" stroke-dasharray="0 0" style=""/></g><g class="divider" style=""><path d="M-98.7109375 72 C-28.620241334007574 72.00035503003994, 41.47045483198485 72.00071006007988, 98.7109375 72.001 M-98.7109375 72 C-45.7255719553398 72.00026838649742, 7.259793589320395 72.00053677299483, 98.7109375 72.001" stroke="#9370DB" stroke-width="1.3" fill="none" stroke-dasharray="0 0" style=""/></g></g><g class="node default" id="my-svg-classId-DropDAO-2" data-look="classic" transform="translate(384.361328125, 104)"><g class="basic label-container outer-path"><path d="M-112.7421875 -75 L112.7421875 -75 L112.7421875 75 L-112.7421875 75" stroke="none" stroke-width="0" fill="#ECECFF" style=""/><path d="M-112.7421875 -75 C-46.71237504168221 -75, 19.317437416635585 -75, 112.7421875 -75 M-112.7421875 -75 C-30.991156819030863 -75, 50.759873861938274 -75, 112.7421875 -75 M112.7421875 -75 C112.7421875 -34.84828150336082, 112.7421875 5.303436993278353, 112.7421875 75 M112.7421875 -75 C112.7421875 -37.97291618313206, 112.7421875 -0.9458323662641135, 112.7421875 75 M112.7421875 75 C57.12540859301456 75, 1.5086296860291242 75, -112.7421875 75 M112.7421875 75 C60.822092374314536 75, 8.901997248629073 75, -112.7421875 75 M-112.7421875 75 C-112.7421875 19.27387572726264, -112.7421875 -36.45224854547472, -112.7421875 -75 M-112.7421875 75 C-112.7421875 34.38758315768999, -112.7421875 -6.224833684620023, -112.7421875 -75" stroke="#9370DB" stroke-width="1.3" fill="none" stroke-dasharray="0 0" style=""/></g><g class="annotation-group text" transform="translate(0, -51)"/><g class="label-group text" transform="translate(-33.578125, -51)"><g class="label" style="font-weight: bolder" transform="translate(0,-12)"><foreignObject width="67.15625" height="24"><div xmlns="http://www.w3.org/1999/xhtml" style="display: table-cell; white-space: nowrap; line-height: 1.5; max-width: 119px; text-align: center;"><span class="nodeLabel markdown-node-label" style=""><p>DropDAO</p></span></div></foreignObject></g></g><g class="members-group text" transform="translate(-100.7421875, -3)"/><g class="methods-group text" transform="translate(-100.7421875, 27)"><g class="label" style="" transform="translate(0,-12)"><foreignObject width="167.90625" height="24"><div xmlns="http://www.w3.org/1999/xhtml" style="display: table-cell; white-space: nowrap; line-height: 1.5; max-width: 212px; text-align: center;"><span class="nodeLabel markdown-node-label" style=""><p>+void salvar(Drop drop)</p></span></div></foreignObject></g><g class="label" style="" transform="translate(0,12)"><foreignObject width="87.171875" height="24"><div xmlns="http://www.w3.org/1999/xhtml" style="display: table-cell; white-space: nowrap; line-height: 1.5; max-width: 136px; text-align: center;"><span class="nodeLabel markdown-node-label" style=""><p>+List listar()</p></span></div></foreignObject></g></g><g class="divider" style=""><path d="M-112.7421875 -27 C-49.54445726087216 -26.999719724569655, 13.653272978255686 -26.99943944913931, 112.7421875 -26.999 M-112.7421875 -27 C-31.611116643146147 -26.99964019204942, 49.519954213707706 -26.999280384098835, 112.7421875 -26.999" stroke="#9370DB" stroke-width="1.3" fill="none" stroke-dasharray="0 0" style=""/></g><g class="divider" style=""><path d="M-112.7421875 -3 C-24.29070989132059 -2.9996077267987697, 64.16076771735882 -2.9992154535975395, 112.7421875 -2.999 M-112.7421875 -3 C-55.35460828325236 -2.999745491991555, 2.032970933495278 -2.99949098398311, 112.7421875 -2.999" stroke="#9370DB" stroke-width="1.3" fill="none" stroke-dasharray="0 0" style=""/></g></g><g class="node default" id="my-svg-classId-JPAUtil-3" data-look="classic" transform="translate(446.728515625, 370)"><g class="basic label-container outer-path"><path d="M-151.75390625 -63 L151.75390625 -63 L151.75390625 63 L-151.75390625 63" stroke="none" stroke-width="0" fill="#ECECFF" style=""/><path d="M-151.75390625 -63 C-33.350190917458534 -63, 85.05352441508293 -63, 151.75390625 -63 M-151.75390625 -63 C-89.9494342453076 -63, -28.144962240615186 -63, 151.75390625 -63 M151.75390625 -63 C151.75390625 -20.6946939890886, 151.75390625 21.610612021822803, 151.75390625 63 M151.75390625 -63 C151.75390625 -28.083178946584844, 151.75390625 6.833642106830311, 151.75390625 63 M151.75390625 63 C36.65493942423785 63, -78.4440274015243 63, -151.75390625 63 M151.75390625 63 C41.18598991842228 63, -69.38192641315544 63, -151.75390625 63 M-151.75390625 63 C-151.75390625 35.51410797422118, -151.75390625 8.028215948442366, -151.75390625 -63 M-151.75390625 63 C-151.75390625 32.19785560705287, -151.75390625 1.395711214105745, -151.75390625 -63" stroke="#9370DB" stroke-width="1.3" fill="none" stroke-dasharray="0 0" style=""/></g><g class="annotation-group text" transform="translate(0, -39)"/><g class="label-group text" transform="translate(-26.7734375, -39)"><g class="label" style="font-weight: bolder" transform="translate(0,-12)"><foreignObject width="53.546875" height="24"><div xmlns="http://www.w3.org/1999/xhtml" style="display: table-cell; white-space: nowrap; line-height: 1.5; max-width: 101px; text-align: center;"><span class="nodeLabel markdown-node-label" style=""><p>JPAUtil</p></span></div></foreignObject></g></g><g class="members-group text" transform="translate(-139.75390625, 9)"/><g class="methods-group text" transform="translate(-139.75390625, 39)"><g class="label" style="" transform="translate(0,-12)"><foreignObject width="252.734375" height="24"><div xmlns="http://www.w3.org/1999/xhtml" style="display: table-cell; white-space: nowrap; line-height: 1.5; max-width: 291px; text-align: center;"><span class="nodeLabel markdown-node-label" style=""><p>+EntityManager getEntityManager()</p></span></div></foreignObject></g></g><g class="divider" style=""><path d="M-151.75390625 -15 C-80.77039183670612 -14.99976612294152, -9.78687742341225 -14.99953224588304, 151.75390625 -14.999 M-151.75390625 -15 C-40.5626086922195 -14.999633646011805, 70.628688865561 -14.99926729202361, 151.75390625 -14.999" stroke="#9370DB" stroke-width="1.3" fill="none" stroke-dasharray="0 0" style=""/></g><g class="divider" style=""><path d="M-151.75390625 9 C-63.49133956044274 9.000290808219935, 24.77122712911452 9.00058161643987, 151.75390625 9.001 M-151.75390625 9 C-75.90257088334843 9.000249915594402, -0.051235516696863215 9.000499831188804, 151.75390625 9.001" stroke="#9370DB" stroke-width="1.3" fill="none" stroke-dasharray="0 0" style=""/></g></g></g></g></g><defs><filter id="my-svg-drop-shadow" height="130%" width="130%"><feDropShadow dx="4" dy="4" stdDeviation="0" flood-opacity="0.06" flood-color="#000000"/></filter></defs><defs><filter id="my-svg-drop-shadow-small" height="150%" width="150%"><feDropShadow dx="2" dy="2" stdDeviation="0" flood-opacity="0.06" flood-color="#000000"/></filter></defs></svg>