<svg id="my-svg" width="100%" xmlns="http://www.w3.org/2000/svg" xmlns:xlink="http://www.w3.org/1999/xlink" class="classDiagram" style="max-width: 606.482px; background-color: transparent;" viewBox="0 0 606.482421875 474" role="graphics-document document" aria-roledescription="class"><style>#my-svg{font-size:16px;fill:#e5e7eb;}@keyframes edge-animation-frame{from{stroke-dashoffset:0;}}@keyframes dash{to{stroke-dashoffset:0;}}#my-svg .edge-animation-slow{stroke-dasharray:9,5!important;stroke-dashoffset:900;animation:dash 50s linear infinite;stroke-linecap:round;}#my-svg .edge-animation-fast{stroke-dasharray:9,5!important;stroke-dashoffset:900;animation:dash 20s linear infinite;stroke-linecap:round;}#my-svg .error-icon{fill:#111827;}#my-svg .error-text{fill:#eee7d8;stroke:#eee7d8;}#my-svg .edge-thickness-normal{stroke-width:1px;}#my-svg .edge-thickness-thick{stroke-width:3.5px;}#my-svg .edge-pattern-solid{stroke-dasharray:0;}#my-svg .edge-thickness-invisible{stroke-width:0;fill:none;}#my-svg .edge-pattern-dashed{stroke-dasharray:3;}#my-svg .edge-pattern-dotted{stroke-dasharray:2;}#my-svg .marker{fill:#cbd5e1;stroke:#cbd5e1;}#my-svg .marker.cross{stroke:#cbd5e1;}#my-svg svg{font-size:16px;}#my-svg p{margin:0;}#my-svg g.classGroup text{fill:#cbd5e1;stroke:none;font-size:10px;}#my-svg g.classGroup text .title{font-weight:bolder;}#my-svg .cluster-label text{fill:#eee7d8;}#my-svg .cluster-label span{color:#eee7d8;}#my-svg .cluster-label span p{background-color:transparent;}#my-svg .cluster rect{fill:#111827;stroke:hsl(220.9090909091, 0%, 0.9803921569%);stroke-width:1px;}#my-svg .cluster text{fill:#eee7d8;}#my-svg .cluster span{color:#eee7d8;}#my-svg .nodeLabel,#my-svg .edgeLabel{color:#e5e7eb;}#my-svg .noteLabel .nodeLabel,#my-svg .noteLabel .edgeLabel{color:#333;}#my-svg .edgeLabel .label rect{fill:#0f172a;}#my-svg .label text{fill:#e5e7eb;}#my-svg .labelBkg{background:#0f172a;}#my-svg .edgeLabel .label span{background:#0f172a;}#my-svg .classTitle{font-weight:bolder;}#my-svg .node rect,#my-svg .node circle,#my-svg .node ellipse,#my-svg .node polygon,#my-svg .node path{fill:#0f172a;stroke:#cbd5e1;stroke-width:1;}#my-svg .divider{stroke:#cbd5e1;stroke-width:1;}#my-svg g.clickable{cursor:pointer;}#my-svg g.classGroup rect{fill:#0f172a;stroke:#cbd5e1;}#my-svg g.classGroup line{stroke:#cbd5e1;stroke-width:1;}#my-svg .classLabel .box{stroke:none;stroke-width:0;fill:#0f172a;opacity:0.5;}#my-svg .classLabel .label{fill:#cbd5e1;font-size:10px;}#my-svg .relation{stroke:#cbd5e1;stroke-width:1;fill:none;}#my-svg .dashed-line{stroke-dasharray:3;}#my-svg .dotted-line{stroke-dasharray:1 2;}#my-svg [id$="-compositionStart"],#my-svg .composition{fill:#cbd5e1!important;stroke:#cbd5e1!important;stroke-width:1;}#my-svg [id$="-compositionEnd"],#my-svg .composition{fill:#cbd5e1!important;stroke:#cbd5e1!important;stroke-width:1;}#my-svg [id$="-dependencyStart"],#my-svg .dependency{fill:#cbd5e1!important;stroke:#cbd5e1!important;stroke-width:1;}#my-svg [id$="-dependencyEnd"],#my-svg .dependency{fill:#cbd5e1!important;stroke:#cbd5e1!important;stroke-width:1;}#my-svg [id$="-extensionStart"],#my-svg .extension{fill:transparent!important;stroke:#cbd5e1!important;stroke-width:1;}#my-svg [id$="-extensionEnd"],#my-svg .extension{fill:transparent!important;stroke:#cbd5e1!important;stroke-width:1;}#my-svg [id$="-aggregationStart"],#my-svg .aggregation{fill:transparent!important;stroke:#cbd5e1!important;stroke-width:1;}#my-svg [id$="-aggregationEnd"],#my-svg .aggregation{fill:transparent!important;stroke:#cbd5e1!important;stroke-width:1;}#my-svg [id$="-lollipopStart"],#my-svg .lollipop{fill:#0f172a!important;stroke:#cbd5e1!important;stroke-width:1;}#my-svg [id$="-lollipopEnd"],#my-svg .lollipop{fill:#0f172a!important;stroke:#cbd5e1!important;stroke-width:1;}#my-svg .edgeTerminals{font-size:11px;line-height:initial;}#my-svg .classTitleText{text-anchor:middle;font-size:18px;fill:#e5e7eb;}#my-svg .edgeLabel[data-look="neo"]{background-color:hsl(102.2222222222, 47.3684210526%, 11.1764705882%);text-align:center;}#my-svg .edgeLabel[data-look="neo"] p{background-color:hsl(102.2222222222, 47.3684210526%, 11.1764705882%);}#my-svg .edgeLabel[data-look="neo"] rect{opacity:0.5;background-color:hsl(102.2222222222, 47.3684210526%, 11.1764705882%);fill:hsl(102.2222222222, 47.3684210526%, 11.1764705882%);}#my-svg .label-icon{display:inline-block;height:1em;overflow:visible;vertical-align:-0.125em;}#my-svg .node .label-icon path{fill:currentColor;stroke:revert;stroke-width:revert;}#my-svg .node .neo-node{stroke:#cbd5e1;}#my-svg [data-look="neo"].node rect,#my-svg [data-look="neo"].cluster rect,#my-svg [data-look="neo"].node polygon{stroke:url(#my-svg-gradient);filter:drop-shadow( 1px 2px 2px rgba(185,185,185,1));}#my-svg [data-look="neo"].node path{stroke:url(#my-svg-gradient);stroke-width:1px;}#my-svg [data-look="neo"].node .outer-path{filter:drop-shadow( 1px 2px 2px rgba(185,185,185,1));}#my-svg [data-look="neo"].node .neo-line path{stroke:#cbd5e1;filter:none;}#my-svg [data-look="neo"].node circle{stroke:url(#my-svg-gradient);filter:drop-shadow( 1px 2px 2px rgba(185,185,185,1));}#my-svg [data-look="neo"].node circle .state-start{fill:#000000;}#my-svg [data-look="neo"].icon-shape .icon{fill:url(#my-svg-gradient);filter:drop-shadow( 1px 2px 2px rgba(185,185,185,1));}#my-svg [data-look="neo"].icon-shape .icon-neo path{stroke:url(#my-svg-gradient);filter:drop-shadow( 1px 2px 2px rgba(185,185,185,1));}#my-svg :root{--mermaid-font-family:"trebuchet ms",verdana,arial,sans-serif;}</style><g><defs><marker id="my-svg_class-aggregationStart" class="marker aggregation class" refX="18" refY="7" markerWidth="190" markerHeight="240" orient="auto"><path d="M 18,7 L9,13 L1,7 L9,1 Z"/></marker></defs><defs><marker id="my-svg_class-aggregationEnd" class="marker aggregation class" refX="1" refY="7" markerWidth="20" markerHeight="28" orient="auto"><path d="M 18,7 L9,13 L1,7 L9,1 Z"/></marker></defs><defs><marker id="my-svg_class-aggregationStart-margin" class="marker aggregation class" refX="15" refY="7" markerWidth="190" markerHeight="240" orient="auto" markerUnits="userSpaceOnUse"><path d="M 18,7 L9,13 L1,7 L9,1 Z" style="stroke-width: 2;"/></marker></defs><defs><marker id="my-svg_class-aggregationEnd-margin" class="marker aggregation class" refX="1" refY="7" markerWidth="20" markerHeight="28" orient="auto" markerUnits="userSpaceOnUse"><path d="M 18,7 L9,13 L1,7 L9,1 Z" style="stroke-width: 2;"/></marker></defs><defs><marker id="my-svg_class-extensionStart" class="marker extension class" refX="18" refY="7" markerWidth="190" markerHeight="240" orient="auto" markerUnits="userSpaceOnUse"><path d="M 1,7 L18,13 V 1 Z"/></marker></defs><defs><marker id="my-svg_class-extensionEnd" class="marker extension class" refX="1" refY="7" markerWidth="20" markerHeight="28" orient="auto"><path d="M 1,1 V 13 L18,7 Z"/></marker></defs><marker id="my-svg_class-extensionStart-margin" class="marker extension class" refX="18" refY="7" markerWidth="20" markerHeight="28" orient="auto" markerUnits="userSpaceOnUse" viewBox="0 0 20 14"><polygon points="10,7 18,13 18,1" style="stroke-width: 2; stroke-dasharray: 0;"/></marker><defs><marker id="my-svg_class-extensionEnd-margin" class="marker extension class" refX="9" refY="7" markerWidth="20" markerHeight="28" orient="auto" markerUnits="userSpaceOnUse" viewBox="0 0 20 14"><polygon points="10,1 10,13 18,7" style="stroke-width: 2; stroke-dasharray: 0;"/></marker></defs><defs><marker id="my-svg_class-compositionStart" class="marker composition class" refX="18" refY="7" markerWidth="190" markerHeight="240" orient="auto"><path d="M 18,7 L9,13 L1,7 L9,1 Z"/></marker></defs><defs><marker id="my-svg_class-compositionEnd" class="marker composition class" refX="1" refY="7" markerWidth="20" markerHeight="28" orient="auto"><path d="M 18,7 L9,13 L1,7 L9,1 Z"/></marker></defs><defs><marker id="my-svg_class-compositionStart-margin" class="marker composition class" refX="15" refY="7" markerWidth="190" markerHeight="240" orient="auto" markerUnits="userSpaceOnUse"><path viewBox="0 0 15 15" d="M 18,7 L9,13 L1,7 L9,1 Z" style="stroke-width: 0;"/></marker></defs><defs><marker id="my-svg_class-compositionEnd-margin" class="marker composition class" refX="3.5" refY="7" markerWidth="20" markerHeight="28" orient="auto" markerUnits="userSpaceOnUse"><path d="M 18,7 L9,13 L1,7 L9,1 Z" style="stroke-width: 0;"/></marker></defs><defs><marker id="my-svg_class-dependencyStart" class="marker dependency class" refX="6" refY="7" markerWidth="190" markerHeight="240" orient="auto"><path d="M 5,7 L9,13 L1,7 L9,1 Z"/></marker></defs><defs><marker id="my-svg_class-dependencyEnd" class="marker dependency class" refX="13" refY="7" markerWidth="20" markerHeight="28" orient="auto"><path d="M 18,7 L9,13 L14,7 L9,1 Z"/></marker></defs><defs><marker id="my-svg_class-dependencyStart-margin" class="marker dependency class" refX="4" refY="7" markerWidth="190" markerHeight="240" orient="auto" markerUnits="userSpaceOnUse"><path d="M 5,7 L9,13 L1,7 L9,1 Z" style="stroke-width: 0;"/></marker></defs><defs><marker id="my-svg_class-dependencyEnd-margin" class="marker dependency class" refX="16" refY="7" markerWidth="20" markerHeight="28" orient="auto" markerUnits="userSpaceOnUse"><path d="M 18,7 L9,13 L14,7 L9,1 Z" style="stroke-width: 0;"/></marker></defs><defs><marker id="my-svg_class-lollipopStart" class="marker lollipop class" refX="13" refY="7" markerWidth="190" markerHeight="240" orient="auto"><circle fill="transparent" cx="7" cy="7" r="6"/></marker></defs><defs><marker id="my-svg_class-lollipopEnd" class="marker lollipop class" refX="1" refY="7" markerWidth="190" markerHeight="240" orient="auto"><circle fill="transparent" cx="7" cy="7" r="6"/></marker></defs><defs><marker id="my-svg_class-lollipopStart-margin" class="marker lollipop class" refX="13" refY="7" markerWidth="190" markerHeight="240" orient="auto" markerUnits="userSpaceOnUse"><circle fill="transparent" cx="7" cy="7" r="6" stroke-width="2"/></marker></defs><defs><marker id="my-svg_class-lollipopEnd-margin" class="marker lollipop class" refX="1" refY="7" markerWidth="190" markerHeight="240" orient="auto" markerUnits="userSpaceOnUse"><circle fill="transparent" cx="7" cy="7" r="6" stroke-width="2"/></marker></defs><g class="root"><g class="clusters"/><g class="edgePaths"><path d="M82.047,206L82.047,211.167C82.047,216.333,82.047,226.667,83.609,238C85.171,249.333,88.295,261.667,89.857,267.833L91.419,274" id="my-svg-id_Usuario_Drop_1" class="edge-thickness-normal edge-pattern-solid relation" style=";;;" data-edge="true" data-et="edge" data-id="id_Usuario_Drop_1" data-points="W3sieCI6ODIuMDQ2ODc1LCJ5IjoyMDB9LHsieCI6ODIuMDQ2ODc1LCJ5IjoyMzd9LHsieCI6OTEuNDE4NTg1NTI2MzE1OCwieSI6Mjc0fV0=" data-look="classic" marker-start="url(#my-svg_class-dependencyStart)"/><path d="M299.644,179L288.725,188.667C277.806,198.333,255.967,217.667,240.223,232.753C224.48,247.839,214.831,258.679,210.006,264.099L205.182,269.518" id="my-svg-id_DropDAO_Drop_2" class="edge-thickness-normal edge-pattern-dashed relation" style=";;;" data-edge="true" data-et="edge" data-id="id_DropDAO_Drop_2" data-points="W3sieCI6Mjk5LjY0Mzc5Njk5MjQ4MTIsInkiOjE3OX0seyJ4IjoyMzQuMTI4OTA2MjUsInkiOjIzN30seyJ4IjoyMDEuMTkyMDgxNzY2OTE3MjgsInkiOjI3NH1d" data-look="classic" marker-end="url(#my-svg_class-dependencyEnd)"/><path d="M419.531,179L424.064,188.667C428.597,198.333,437.663,217.667,442.196,238C446.729,258.333,446.729,279.667,446.729,290.333L446.729,301" id="my-svg-id_DropDAO_JPAUtil_3" class="edge-thickness-normal edge-pattern-dashed relation" style=";;;" data-edge="true" data-et="edge" data-id="id_DropDAO_JPAUtil_3" data-points="W3sieCI6NDE5LjUzMDc5NDc2MDMzODMsInkiOjE3OX0seyJ4Ijo0NDYuNzI4NTE1NjI1LCJ5IjoyMzd9LHsieCI6NDQ2LjcyODUxNTYyNSwieSI6MzA3fV0=" data-look="classic" marker-end="url(#my-svg_class-dependencyEnd)"/></g><g class="edgeLabels"><g class="edgeLabel" transform="translate(82.046875, 237)"><g class="label" data-id="id_Usuario_Drop_1" transform="translate(-19.1484375, -12)"><foreignObject width="38.296875" height="24"><div xmlns="http://www.w3.org/1999/xhtml" class="labelBkg" style="display: table-cell; white-space: nowrap; line-height: 1.5; max-width: 200px; text-align: center;"><span class="edgeLabel"><p>autor</p></span></div></foreignObject></g></g><g class="edgeLabel" transform="translate(248.34139, 224.41776)"><g class="label" data-id="id_DropDAO_Drop_2" transform="translate(-28.2265625, -12)"><foreignObject width="56.453125" height="24"><div xmlns="http://www.w3.org/1999/xhtml" class="labelBkg" style="display: table-cell; white-space: nowrap; line-height: 1.5; max-width: 200px; text-align: center;"><span class="edgeLabel"><p>persiste</p></span></div></foreignObject></g></g><g class="edgeLabel" transform="translate(446.728515625, 237)"><g class="label" data-id="id_DropDAO_JPAUtil_3" transform="translate(-76.5078125, -12)"><foreignObject width="153.015625" height="24"><div xmlns="http://www.w3.org/1999/xhtml" class="labelBkg" style="display: table-cell; white-space: nowrap; line-height: 1.5; max-width: 200px; text-align: center;"><span class="edgeLabel"><p>obtem EntityManager</p></span></div></foreignObject></g></g><g class="edgeTerminals" transform="translate(67.04687750000015, 217.50000214285714)"><g class="inner" transform="translate(-2.890625, -8.25)"><foreignObject width="5.78125" height="16.5" style="width: 9px; height: 12px;"><div xmlns="http://www.w3.org/1999/xhtml" style="display: table-cell; white-space: nowrap; line-height: 1.5;"><span class="edgeLabel"><p>1</p></span></div></foreignObject></g></g><g class="edgeTerminals" transform="translate(96.66252629365052, 248.35268567061306)"><g class="inner" transform="translate(-8.9453125, -8.25)"/><foreignObject width="17.890625" height="16.5" style="width: 36px; height: 12px;"><div xmlns="http://www.w3.org/1999/xhtml" style="display: table-cell; white-space: nowrap; line-height: 1.5;"><span class="edgeLabel"><p>0..*</p></span></div></foreignObject></g></g><g class="nodes"><g class="node default" id="my-svg-classId-Usuario-0" data-look="classic" transform="translate(82.046875, 104)"><g class="basic label-container outer-path"><path d="M-74.046875 -96 L74.046875 -96 L74.046875 96 L-74.046875 96" stroke="none" stroke-width="0" fill="#0f172a" style=""/><path d="M-74.046875 -96 C-36.12627669840184 -96, 1.7943216031963232 -96, 74.046875 -96 M-74.046875 -96 C-18.401312371381188 -96, 37.244250257237624 -96, 74.046875 -96 M74.046875 -96 C74.046875 -34.75586532582791, 74.046875 26.488269348344176, 74.046875 96 M74.046875 -96 C74.046875 -38.89754293278896, 74.046875 18.204914134422083, 74.046875 96 M74.046875 96 C18.12024633366258 96, -37.80638233267484 96, -74.046875 96 M74.046875 96 C21.71920992761057 96, -30.60845514477886 96, -74.046875 96 M-74.046875 96 C-74.046875 50.67678766094166, -74.046875 5.353575321883326, -74.046875 -96 M-74.046875 96 C-74.046875 27.142173162501905, -74.046875 -41.71565367499619, -74.046875 -96" stroke="#cbd5e1" stroke-width="1.3" fill="none" stroke-dasharray="0 0" style=""/></g><g class="annotation-group text" transform="translate(0, -72)"/><g class="label-group text" transform="translate(-28.1875, -72)"><g class="label" style="font-weight: bolder" transform="translate(0,-12)"><foreignObject width="56.375" height="24"><div xmlns="http://www.w3.org/1999/xhtml" style="display: table-cell; white-space: nowrap; line-height: 1.5; max-width: 102px; text-align: center;"><span class="nodeLabel markdown-node-label" style=""><p>Usuario</p></span></div></foreignObject></g></g><g class="members-group text" transform="translate(-62.046875, -24)"><g class="label" style="" transform="translate(0,-12)"><foreignObject width="60.15625" height="24"><div xmlns="http://www.w3.org/1999/xhtml" style="display: table-cell; white-space: nowrap; line-height: 1.5; max-width: 116px; text-align: center;"><span class="nodeLabel markdown-node-label" style=""><p>+Long id</p></span></div></foreignObject></g><g class="label" style="" transform="translate(0,12)"><foreignObject width="94.140625" height="24"><div xmlns="http://www.w3.org/1999/xhtml" style="display: table-cell; white-space: nowrap; line-height: 1.5; max-width: 143px; text-align: center;"><span class="nodeLabel markdown-node-label" style=""><p>+String nome</p></span></div></foreignObject></g><g class="label" style="" transform="translate(0,36)"><foreignObject width="94.5" height="24"><div xmlns="http://www.w3.org/1999/xhtml" style="display: table-cell; white-space: nowrap; line-height: 1.5; max-width: 144px; text-align: center;"><span class="nodeLabel markdown-node-label" style=""><p>+String email</p></span></div></foreignObject></g><g class="label" style="" transform="translate(0,60)"><foreignObject width="95.90625" height="24"><div xmlns="http://www.w3.org/1999/xhtml" style="display: table-cell; white-space: nowrap; line-height: 1.5; max-width: 145px; text-align: center;"><span class="nodeLabel markdown-node-label" style=""><p>+String senha</p></span></div></foreignObject></g></g><g class="methods-group text" transform="translate(-62.046875, 96)"/><g class="divider" style=""><path d="M-74.046875 -48 C-19.718725977344384 -47.99963315029147, 34.60942304531123 -47.99926630058294, 74.046875 -47.999 M-74.046875 -48 C-42.936016775300544 -47.99978992456991, -11.825158550601095 -47.99957984913982, 74.046875 -47.999" stroke="#cbd5e1" stroke-width="1.3" fill="none" stroke-dasharray="0 0" style=""/></g><g class="divider" style=""><path d="M-74.046875 72 C-19.29313301427848 72.00036972351626, 35.46060897144304 72.00073944703252, 74.046875 72.001 M-74.046875 72 C-30.29681938526865 72.00029542135043, 13.453236229462703 72.00059084270086, 74.046875 72.001" stroke="#cbd5e1" stroke-width="1.3" fill="none" stroke-dasharray="0 0" style=""/></g></g><g class="node default" id="my-svg-classId-Drop-1" data-look="classic" transform="translate(115.734375, 370)"><g class="basic label-container outer-path"><path d="M-98.7109375 -96 L98.7109375 -96 L98.7109375 96 L-98.7109375 96" stroke="none" stroke-width="0" fill="#0f172a" style=""/><path d="M-98.7109375 -96 C-54.319125497321416 -96, -9.927313494642831 -96, 98.7109375 -96 M-98.7109375 -96 C-58.60344679471208 -96, -18.495956089424155 -96, 98.7109375 -96 M98.7109375 -96 C98.7109375 -44.69838347052432, 98.7109375 6.603233058951361, 98.7109375 96 M98.7109375 -96 C98.7109375 -29.14098252255647, 98.7109375 37.71803495488706, 98.7109375 96 M98.7109375 96 C45.816672261075034 96, -7.077592977849932 96, -98.7109375 96 M98.7109375 96 C56.746357004468024 96, 14.781776508936048 96, -98.7109375 96 M-98.7109375 96 C-98.7109375 42.66654233490085, -98.7109375 -10.666915330198293, -98.7109375 -96 M-98.7109375 96 C-98.7109375 29.868831648263566, -98.7109375 -36.26233670347287, -98.7109375 -96" stroke="#cbd5e1" stroke-width="1.3" fill="none" stroke-dasharray="0 0" style=""/></g><g class="annotation-group text" transform="translate(0, -72)"/><g class="label-group text" transform="translate(-17.75, -72)"><g class="label" style="font-weight: bolder" transform="translate(0,-12)"><foreignObject width="35.5" height="24"><div xmlns="http://www.w3.org/1999/xhtml" style="display: table-cell; white-space: nowrap; line-height: 1.5; max-width: 84px; text-align: center;"><span class="nodeLabel markdown-node-label" style=""><p>Drop</p></span></div></foreignObject></g></g><g class="members-group text" transform="translate(-86.7109375, -24)"><g class="label" style="" transform="translate(0,-12)"><foreignObject width="60.15625" height="24"><div xmlns="http://www.w3.org/1999/xhtml" style="display: table-cell; white-space: nowrap; line-height: 1.5; max-width: 116px; text-align: center;"><span class="nodeLabel markdown-node-label" style=""><p>+Long id</p></span></div></foreignObject></g><g class="label" style="" transform="translate(0,12)"><foreignObject width="94.109375" height="24"><div xmlns="http://www.w3.org/1999/xhtml" style="display: table-cell; white-space: nowrap; line-height: 1.5; max-width: 141px; text-align: center;"><span class="nodeLabel markdown-node-label" style=""><p>+String titulo</p></span></div></foreignObject></g><g class="label" style="" transform="translate(0,36)"><foreignObject width="121.375" height="24"><div xmlns="http://www.w3.org/1999/xhtml" style="display: table-cell; white-space: nowrap; line-height: 1.5; max-width: 166px; text-align: center;"><span class="nodeLabel markdown-node-label" style=""><p>+String conteudo</p></span></div></foreignObject></g><g class="label" style="" transform="translate(0,60)"><foreignObject width="155.671875" height="24"><div xmlns="http://www.w3.org/1999/xhtml" style="display: table-cell; white-space: nowrap; line-height: 1.5; max-width: 196px; text-align: center;"><span class="nodeLabel markdown-node-label" style=""><p>+Date dataPublicacao</p></span></div></foreignObject></g></g><g class="methods-group text" transform="translate(-86.7109375, 96)"/><g class="divider" style=""><path d="M-98.7109375 -48 C-27.09317096382098 -47.99963723489843, 44.52459557235804 -47.999274469796866, 98.7109375 -47.999 M-98.7109375 -48 C-34.284840420057435 -47.99967366282445, 30.14125665988513 -47.9993473256489, 98.7109375 -47.999" stroke="#cbd5e1" stroke-width="1.3" fill="none" stroke-dasharray="0 0" style=""/></g><g class="divider" style=""><path d="M-98.7109375 72 C-20.214393496264776 72.00039760813742, 58.28215050747045 72.00079521627484, 98.7109375 72.001 M-98.7109375 72 C-48.50363756672385 72.00025431477607, 1.7036623665522939 72.00050862955216, 98.7109375 72.001" stroke="#cbd5e1" stroke-width="1.3" fill="none" stroke-dasharray="0 0" style=""/></g></g><g class="node default" id="my-svg-classId-DropDAO-2" data-look="classic" transform="translate(384.361328125, 104)"><g class="basic label-container outer-path"><path d="M-112.7421875 -75 L112.7421875 -75 L112.7421875 75 L-112.7421875 75" stroke="none" stroke-width="0" fill="#0f172a" style=""/><path d="M-112.7421875 -75 C-32.953076241130404 -75, 46.83603501773919 -75, 112.7421875 -75 M-112.7421875 -75 C-58.11439689037928 -75, -3.486606280758565 -75, 112.7421875 -75 M112.7421875 -75 C112.7421875 -34.51874329879389, 112.7421875 5.962513402412213, 112.7421875 75 M112.7421875 -75 C112.7421875 -42.46259980117113, 112.7421875 -9.92519960234226, 112.7421875 75 M112.7421875 75 C46.543133404045065 75, -19.65592069190987 75, -112.7421875 75 M112.7421875 75 C50.60529105241183 75, -11.531605395176342 75, -112.7421875 75 M-112.7421875 75 C-112.7421875 44.515154313437904, -112.7421875 14.0303086268758, -112.7421875 -75 M-112.7421875 75 C-112.7421875 44.47497411152875, -112.7421875 13.949948223057511, -112.7421875 -75" stroke="#cbd5e1" stroke-width="1.3" fill="none" stroke-dasharray="0 0" style=""/></g><g class="annotation-group text" transform="translate(0, -51)"/><g class="label-group text" transform="translate(-33.578125, -51)"><g class="label" style="font-weight: bolder" transform="translate(0,-12)"><foreignObject width="67.15625" height="24"><div xmlns="http://www.w3.org/1999/xhtml" style="display: table-cell; white-space: nowrap; line-height: 1.5; max-width: 119px; text-align: center;"><span class="nodeLabel markdown-node-label" style=""><p>DropDAO</p></span></div></foreignObject></g></g><g class="members-group text" transform="translate(-100.7421875, -3)"/><g class="methods-group text" transform="translate(-100.7421875, 27)"><g class="label" style="" transform="translate(0,-12)"><foreignObject width="167.90625" height="24"><div xmlns="http://www.w3.org/1999/xhtml" style="display: table-cell; white-space: nowrap; line-height: 1.5; max-width: 212px; text-align: center;"><span class="nodeLabel markdown-node-label" style=""><p>+void salvar(Drop drop)</p></span></div></foreignObject></g><g class="label" style="" transform="translate(0,12)"><foreignObject width="137.484375" height="24"><div xmlns="http://www.w3.org/1999/xhtml" style="display: table-cell; white-space: nowrap; line-height: 1.5; max-width: 224px; text-align: center;"><span class="nodeLabel markdown-node-label" style=""><p>+List&lt;Drop&gt; listar()</p></span></div></foreignObject></g></g><g class="divider" style=""><path d="M-112.7421875 -27 C-55.70155109893675 -26.999747030647242, 1.339085302126506 -26.99949406129448, 112.7421875 -26.999 M-112.7421875 -27 C-60.07980102723129 -26.999766447735137, -7.417414554462582 -26.99953289547027, 112.7421875 -26.999" stroke="#cbd5e1" stroke-width="1.3" fill="none" stroke-dasharray="0 0" style=""/></g><g class="divider" style=""><path d="M-112.7421875 -3 C-53.79202719622114 -2.999738562105229, 5.158133107557717 -2.9994771242104576, 112.7421875 -2.999 M-112.7421875 -3 C-27.928584362051254 -2.9996238603976972, 56.88501877589749 -2.999247720795395, 112.7421875 -2.999" stroke="#cbd5e1" stroke-width="1.3" fill="none" stroke-dasharray="0 0" style=""/></g></g><g class="node default" id="my-svg-classId-JPAUtil-3" data-look="classic" transform="translate(446.728515625, 370)"><g class="basic label-container outer-path"><path d="M-151.75390625 -63 L151.75390625 -63 L151.75390625 63 L-151.75390625 63" stroke="none" stroke-width="0" fill="#0f172a" style=""/><path d="M-151.75390625 -63 C-88.98731746145111 -63, -26.220728672902226 -63, 151.75390625 -63 M-151.75390625 -63 C-67.28212590445615 -63, 17.189654441087697 -63, 151.75390625 -63 M151.75390625 -63 C151.75390625 -23.37175299045476, 151.75390625 16.256494019090482, 151.75390625 63 M151.75390625 -63 C151.75390625 -16.98398006485632, 151.75390625 29.032039870287363, 151.75390625 63 M151.75390625 63 C49.043098150726294 63, -53.66770994854741 63, -151.75390625 63 M151.75390625 63 C37.994271309675284 63, -75.76536363064943 63, -151.75390625 63 M-151.75390625 63 C-151.75390625 23.065912386349993, -151.75390625 -16.868175227300014, -151.75390625 -63 M-151.75390625 63 C-151.75390625 24.075651825397735, -151.75390625 -14.84869634920453, -151.75390625 -63" stroke="#cbd5e1" stroke-width="1.3" fill="none" stroke-dasharray="0 0" style=""/></g><g class="annotation-group text" transform="translate(0, -39)"/><g class="label-group text" transform="translate(-26.7734375, -39)"><g class="label" style="font-weight: bolder" transform="translate(0,-12)"><foreignObject width="53.546875" height="24"><div xmlns="http://www.w3.org/1999/xhtml" style="display: table-cell; white-space: nowrap; line-height: 1.5; max-width: 101px; text-align: center;"><span class="nodeLabel markdown-node-label" style=""><p>JPAUtil</p></span></div></foreignObject></g></g><g class="members-group text" transform="translate(-139.75390625, 9)"/><g class="methods-group text" transform="translate(-139.75390625, 39)"><g class="label" style="" transform="translate(0,-12)"><foreignObject width="252.734375" height="24"><div xmlns="http://www.w3.org/1999/xhtml" style="display: table-cell; white-space: nowrap; line-height: 1.5; max-width: 291px; text-align: center;"><span class="nodeLabel markdown-node-label" style=""><p>+EntityManager getEntityManager()</p></span></div></foreignObject></g></g><g class="divider" style=""><path d="M-151.75390625 -15 C-87.98883218020512 -14.999789906317256, -24.22375811041026 -14.999579812634511, 151.75390625 -14.999 M-151.75390625 -15 C-31.516840881842484 -14.999603841942724, 88.72022448631503 -14.999207683885448, 151.75390625 -14.999" stroke="#cbd5e1" stroke-width="1.3" fill="none" stroke-dasharray="0 0" style=""/></g><g class="divider" style=""><path d="M-151.75390625 9 C-56.103167598646195 9.000315150828783, 39.54757105270761 9.000630301657564, 151.75390625 9.001 M-151.75390625 9 C-71.51180340275359 9.000264382330677, 8.730299444492829 9.000528764661352, 151.75390625 9.001" stroke="#cbd5e1" stroke-width="1.3" fill="none" stroke-dasharray="0 0" style=""/></g></g></g></g></g><defs><filter id="my-svg-drop-shadow" height="130%" width="130%"><feDropShadow dx="4" dy="4" stdDeviation="0" flood-opacity="0.06" flood-color="#000000"/></filter></defs><defs><filter id="my-svg-drop-shadow-small" height="150%" width="150%"><feDropShadow dx="2" dy="2" stdDeviation="0" flood-opacity="0.06" flood-color="#000000"/></filter></defs><linearGradient id="my-svg-gradient" gradientUnits="objectBoundingBox" x1="0%" y1="0%" x2="100%" y2="0%"><stop offset="0%" stop-color="#cbd5e1" stop-opacity="1"/><stop offset="100%" stop-color="hsl(102.2222222222, 7.3684210526%, 1.1764705882%)" stop-opacity="1"/></linearGradient></svg>